<?xml version="1.0" encoding="UTF-8" standalone="no"?>
<!-- Created with Inkscape (http://www.inkscape.org/) -->

<svg
   width="655.95563"
   height="658.61932"
   viewBox="0 0 655.95563 658.61932"
   version="1.1"
   id="svg1"
   xml:space="preserve"
   xmlns="http://www.w3.org/2000/svg"
   xmlns:svg="http://www.w3.org/2000/svg"><defs
     id="defs1"><linearGradient
       id="swatch8"><stop
         style="stop-color:#000000;stop-opacity:1;"
         offset="0"
         id="stop8" /></linearGradient><clipPath
       clipPathUnits="userSpaceOnUse"
       id="clipPath10"><circle
         style="fill:#000000;stroke-width:1.58506"
         id="circle10"
         cx="1074.6779"
         cy="429.29099"
         r="200" /></clipPath></defs><g
     id="layer2"
     style="display:inline"
     transform="translate(-843.00336,-200.29153)"><g
       id="layer3"
       clip-path="url(#clipPath10)"
       style="display:inline"><g
         id="g13"
         transform="matrix(0.82040814,0,0,0.82040814,129.43799,74.124056)"><path
           d="m 1340.8633,494.49414 v 0.0156 c -0.064,10e-4 -0.1256,0 -0.1894,0 -3.9125,12.24155 -6.9382,25.53834 -7.5137,40.68554 -1.0823,28.43912 1.8084,45.74988 -1.4648,64.17188 -3.2732,18.42239 -12.9504,36.55777 -37.5684,64.99609 -29.3015,33.84935 -75.7395,60.04346 -129.3789,68.89649 -9.9828,6.37359 -20.522,12.21458 -31.6074,17.4121 41.7502,15.71748 85.4114,16.57445 120.0254,5.21485 60.9755,-20.00991 56.2547,-34.3836 83.58,-76.25391 8.6076,-13.18975 18.5466,-23.25776 28.5274,-31.52734 28.4331,12.39839 56.4408,20.35854 73.8906,18.38672 9.3822,-21.75146 -0.226,-46.97612 -16.1953,-70.82032 13.098,-40.68945 -6.7794,-81.43451 -50.8047,-95.83984 -11.4833,-3.75727 -21.8028,-5.52346 -31.3027,-5.33789 z m 33.0254,59.75781 c 4.8989,-0.10134 9.5587,1.93434 12.7597,5.57422 6.0664,6.89824 5.2846,17.50138 -1.7461,23.67969 -7.0272,6.17622 -17.6377,5.59301 -23.7011,-1.30274 -6.0669,-6.89771 -5.2859,-17.50081 1.7441,-23.67968 3.0428,-2.67387 6.9252,-4.18926 10.9434,-4.27149 z"
           style="baseline-shift:baseline;display:inline;overflow:visible;vector-effect:none;fill:#787878;enable-background:accumulate;stop-color:#000000;stop-opacity:1"
           id="path11" /><path
           d="m 1280.459,338.80078 c -7.6255,-0.15564 -15.6114,0.64656 -23.8594,2.52539 -0.5563,0.12771 -1.0427,0.28397 -1.5898,0.41406 -9.0749,8.97156 -19.2057,17.9768 -30.0469,26.80469 3.4903,15.40301 8.6743,31.45868 17.8418,47.89649 15.9118,28.5317 29.0288,43.76028 36.7266,63.55468 7.6977,19.79441 9.0351,43.07746 1.8945,85.4961 -8.8526,52.5898 -40.8666,108.27939 -91.6231,149.38867 39.3953,-11.4901 72.9751,-32.69112 95.2071,-58.37305 23.997,-27.72118 32.003,-43.40259 34.8105,-59.20508 2.8079,-15.80248 0.1748,-33.1228 1.293,-62.51171 0.7203,-18.93481 4.7547,-35.5015 9.8847,-50.06446 l 1.2305,-3.49023 3.6797,-0.48438 c 32.8373,-4.2593 62.5159,-12.63842 77.8574,-22.54101 -4.9281,-22.15732 -25.8623,-39.35034 -53.5859,-52.41797 l -2.6426,-1.2461 -0.6621,-2.8457 c -8.7932,-37.75786 -38.2726,-62.10823 -76.416,-62.90039 z m 19.0879,46.63477 a 19.24692,19.610071 17.729059 0 1 5.7754,0.89648 19.24692,19.610071 17.729059 0 1 12.3632,24.53516 19.24692,19.610071 17.729059 0 1 -24.3046,12.82226 19.24692,19.610071 17.729059 0 1 -12.3614,-24.53711 19.24692,19.610071 17.729059 0 1 18.5274,-13.71679 z"
           style="baseline-shift:baseline;display:inline;overflow:visible;vector-effect:none;fill:#b2b2b2;enable-background:accumulate;stop-color:#000000;stop-opacity:1"
           id="path12" /><path
           d="m 1121.8359,241.46289 v 0.002 c -23.8362,-0.13967 -48.2784,9.36902 -69.2832,29.76563 -27.5875,26.78855 -36.1571,50.9045 -31.3184,80.99219 l 1.3242,8.2539 -8.2461,-1.33984 c -60.60992,-9.82078 -135.62337,-4.85936 -220.97066,29.66601 25.08891,10.75422 71.13898,28.70241 122.24024,53.24219 l 16.20312,7.78711 -17.61523,3.57031 c -67.47801,13.67782 -147.54758,53.18611 -220.68164,139.41016 32.71638,-2.54289 99.5816,-10.41204 169.31836,-10.30469 38.76512,0.0599 76.96811,2.7413 108.09179,10.81055 31.12412,8.06925 59.41092,26.53855 63.39652,40.07031 3.9855,13.53176 1.7253,20.65523 -2.2012,31.24024 -3.9265,10.585 -16.0038,26.66551 -32.70703,37.28125 -16.70319,10.61573 -37.89483,19.89362 -59.91407,27.77929 -44.03847,15.77176 -90.90769,25.84915 -111.59961,27.77149 -4.39818,0.40865 -6.15474,1.98836 -7.84961,5.0664 -1.69486,3.07765 -2.63029,7.91206 -2.76757,12.97071 -0.18358,6.7547 0.86627,10.27933 2.77343,12.95312 1.90717,2.67379 4.88581,3.74326 7.95508,3.95117 130.02667,8.80035 227.24828,-23.90728 297.85938,-51.92578 81.2145,-37.23787 132.5457,-110.77235 143.6895,-176.97851 6.9833,-41.48361 5.4862,-61.81434 -1.2461,-79.12891 -6.7336,-17.31457 -19.6452,-32.68941 -36.0196,-62.05078 -10.5227,-18.86856 -16.3921,-37.38111 -20.0312,-54.62305 l -0.7715,-3.63281 2.9004,-2.32227 c 30.0913,-24.12234 54.5956,-50.46012 63.4922,-69.63476 -18.2544,-19.41409 -49.7994,-23.51817 -85.0918,-19.74414 l -2.8985,0.30273 -2.0429,-2.08008 c -18.8063,-19.15788 -42.1474,-28.97942 -65.9864,-29.12109 z m 10.5684,44.82617 c 10.348,-0.16362 19.478,7.01099 21.957,17.25 2.9161,12.05838 -4.3151,24.15428 -16.1504,27.01563 -11.8349,2.86374 -23.7941,-4.58966 -26.7109,-16.64844 -2.916,-12.05838 4.3131,-24.15427 16.1484,-27.01563 1.5572,-0.37512 3.1528,-0.57801 4.7559,-0.60156 z"
           style="baseline-shift:baseline;display:inline;overflow:visible;vector-effect:none;fill:#ececec;enable-background:accumulate;stop-color:#000000;stop-opacity:1"
           id="path13" /></g></g><path
       fill="none"
       stroke-width="47.9557"
       stroke-linecap="round"
       d="m 1215.9459,570.56935 a 203.81162,203.81162 0 1 0 -2.6642,2.66421 L 1439.739,799.69092 M 1318.5178,643.83497 1465.049,790.3662 1430.4143,825.00086 1283.8831,678.46962"
       id="path1"
       style="display:inline;fill:none;fill-opacity:0.29682;stroke:#000000;stroke-width:47.956;stroke-dasharray:none;stroke-opacity:1;paint-order:normal" /></g></svg>
