<?xml version="1.0" encoding="UTF-8" standalone="no"?>
<svg
   sodipodi:docname="bevy-inspector-plain-solid-3.svg"
   inkscape:version="1.3.2 (091e20e, 2023-11-25, custom)"
   id="svg2321"
   version="1.1"
   viewBox="0 0 256 255.99998"
   height="255.99998"
   width="256"
   inkscape:export-filename="bevy-inspector-plain-solid-final.png"
   inkscape:export-xdpi="96"
   inkscape:export-ydpi="96"
   xml:space="preserve"
   xmlns:inkscape="http://www.inkscape.org/namespaces/inkscape"
   xmlns:sodipodi="http://sodipodi.sourceforge.net/DTD/sodipodi-0.dtd"
   xmlns="http://www.w3.org/2000/svg"
   xmlns:svg="http://www.w3.org/2000/svg"
   xmlns:rdf="http://www.w3.org/1999/02/22-rdf-syntax-ns#"
   xmlns:cc="http://creativecommons.org/ns#"><defs
     id="defs2315" /><sodipodi:namedview
     fit-margin-bottom="0"
     fit-margin-right="0"
     fit-margin-left="0"
     fit-margin-top="0"
     inkscape:window-maximized="1"
     inkscape:window-y="32"
     inkscape:window-x="-8"
     inkscape:window-height="1017"
     inkscape:window-width="1920"
     showgrid="false"
     inkscape:document-rotation="0"
     inkscape:current-layer="svg2321"
     inkscape:document-units="mm"
     inkscape:cy="136"
     inkscape:cx="110.25"
     inkscape:zoom="2"
     inkscape:pageshadow="2"
     inkscape:pageopacity="0.0"
     borderopacity="1.0"
     bordercolor="#666666"
     pagecolor="#9d9d9d"
     id="base"
     inkscape:pagecheckerboard="true"
     inkscape:showpageshadow="2"
     inkscape:deskcolor="#d1d1d1"><inkscape:page
       x="0"
       y="0"
       width="256"
       height="255.99998"
       id="page2"
       margin="0"
       bleed="0" /></sodipodi:namedview><metadata
     id="metadata2318"><rdf:RDF><cc:Work
         rdf:about="" /></rdf:RDF></metadata><path
     id="path4"
     style="color:#000000;font-style:normal;font-variant:normal;font-weight:normal;font-stretch:normal;font-size:medium;line-height:normal;font-family:sans-serif;font-variant-ligatures:normal;font-variant-position:normal;font-variant-caps:normal;font-variant-numeric:normal;font-variant-alternates:normal;font-variant-east-asian:normal;font-feature-settings:normal;font-variation-settings:normal;text-indent:0;text-align:start;text-decoration:none;text-decoration-line:none;text-decoration-style:solid;text-decoration-color:#000000;letter-spacing:normal;word-spacing:normal;text-transform:none;writing-mode:lr-tb;direction:ltr;text-orientation:mixed;dominant-baseline:auto;baseline-shift:baseline;text-anchor:start;white-space:normal;shape-padding:0;shape-margin:0;inline-size:0;clip-rule:nonzero;display:inline;overflow:visible;visibility:visible;opacity:1;isolation:auto;mix-blend-mode:normal;color-interpolation:sRGB;color-interpolation-filters:linearRGB;solid-color:#000000;solid-opacity:1;vector-effect:none;fill:#ffffff;fill-opacity:1;fill-rule:nonzero;stroke:none;stroke-width:3.02362;stroke-linecap:butt;stroke-linejoin:miter;stroke-miterlimit:4;stroke-dasharray:none;stroke-dashoffset:0;stroke-opacity:1;color-rendering:auto;image-rendering:auto;shape-rendering:auto;text-rendering:auto;enable-background:accumulate;stop-color:#000000;stop-opacity:1"
     inkscape:label="logo"
     d="M 99.79297,0 C 44.678975,-5.2644662e-4 -5.2541438e-4,44.67897 0,99.792968 6.9368161e-4,154.9061 44.679837,199.58256 99.79297,199.58202 c 22.84662,-0.0653 44.97826,-7.96852 62.69921,-22.38867 l 13.91602,13.91602 a 10.935692,10.935692 0 0 0 0,15.46485 L 225.83398,256 256,225.83398 206.57422,176.4082 a 10.9357,10.9357 0 0 0 -15.46485,0 L 177.19335,162.49219 C 191.61351,144.77123 199.51671,122.6396 199.58203,99.792968 199.58256,44.679837 154.9061,7.0193968e-4 99.79297,0 Z m 1.52539,20.583987 c 22.8231,0.452851 45.27535,10.716039 60.56055,30.003903 27.17419,34.290187 21.40555,84.11675 -12.88477,111.29101 -2.26122,1.79197 -4.58922,3.44055 -6.97461,4.94727 5.82344,-12.72459 5.03513,-28.54819 -0.60742,-38.66602 -4.39116,-7.87388 -6.8388,-15.59983 -8.35742,-22.79492 l -0.32422,-1.51562 1.20899,-0.96876 C 146.49661,92.814547 156.723,81.821934 160.43554,73.820309 152.81796,65.718771 139.65336,64.007123 124.92578,65.582027 l -1.20899,0.126958 -0.85156,-0.86914 C 115.01732,56.845218 105.27814,52.746619 95.330077,52.687502 h -0.0021 C 85.381098,52.629179 75.18321,56.597837 66.417859,65.109377 54.905536,76.288137 51.328319,86.354494 53.347542,98.910151 l 0.552735,3.441409 -3.44336,-0.55859 C 41.264215,100.30336 31.268934,99.6487 20.568246,100.08788 20.496463,76.640993 30.787135,53.39338 50.58973,37.701168 65.591754,25.813083 83.566937,20.23176 101.31824,20.583987 Z m -1.580079,50.812499 c 4.318229,-0.06823 8.129549,2.924509 9.164059,7.19726 1.21687,5.031996 -1.80134,10.077443 -6.74024,11.271486 -4.938728,1.195045 -9.92928,-1.913154 -11.146477,-6.945316 -1.216856,-5.031987 1.799401,-10.081346 6.738277,-11.275389 0.649827,-0.156542 1.315416,-0.238225 1.984381,-0.248041 z" /></svg>
